<svg xmlns="http://www.w3.org/2000/svg" viewBox="0 0 1200 630" role="img" aria-labelledby="title description">
  <title id="title">Khristopher Ben Manilla — Full-Stack Software Engineer</title>
  <desc id="description">WashDish Design Language social preview with a black-first layered interface and restrained blue accent.</desc>
  <defs>
    <pattern id="grid" width="48" height="48" patternUnits="userSpaceOnUse"><path d="M48 0H0V48" fill="none" stroke="#2e3743" stroke-opacity=".34"/></pattern>
    <linearGradient id="fade" x1="0" y1="0" x2="1" y2="1"><stop stop-color="#090c11"/><stop offset="1" stop-color="#05070a"/></linearGradient>
  </defs>
  <rect width="1200" height="630" fill="url(#fade)"/>
  <rect width="1200" height="630" fill="url(#grid)"/>
  <rect x="56" y="48" width="1088" height="534" rx="24" fill="#0e1218" stroke="#586373" stroke-width="2"/>
  <g font-family="Inter,Arial,sans-serif">
    <rect x="96" y="92" width="52" height="52" rx="12" fill="#141a22" stroke="#7a8594"/>
    <text x="122" y="125" text-anchor="middle" fill="#6ea8fe" font-size="14" font-weight="700">KM</text>
    <text x="168" y="113" fill="#f7f8fa" font-size="17" font-weight="700">Khristopher Ben Manilla</text>
    <text x="168" y="137" fill="#969fac" font-size="13">Software Engineering Portfolio</text>
    <text x="96" y="248" fill="#969fac" font-size="14" font-weight="600" letter-spacing="3">FULL-STACK SOFTWARE ENGINEER</text>
    <text x="96" y="326" fill="#f7f8fa" font-size="58" font-weight="700">Khristopher Ben</text>
    <text x="96" y="392" fill="#f7f8fa" font-size="58" font-weight="700">Manilla</text>
    <text x="96" y="446" fill="#b8bec8" font-size="20">Secure systems · Automated testing · Practical AI/ML</text>
    <g transform="translate(96 492)">
      <rect width="196" height="48" rx="12" fill="#6ea8fe"/>
      <text x="98" y="31" text-anchor="middle" fill="#040609" font-size="14" font-weight="700">View engineering work</text>
    </g>
    <g transform="translate(860 148)">
      <rect width="220" height="294" rx="16" fill="#141a22" stroke="#7a8594"/>
      <rect x="24" y="24" width="172" height="72" rx="12" fill="#1b232d" stroke="#586373"/>
      <circle cx="47" cy="47" r="6" fill="#49c47a"/>
      <text x="62" y="52" fill="#f7f8fa" font-size="12" font-weight="600">Systems verified</text>
      <rect x="24" y="116" width="172" height="64" rx="12" fill="#1b232d" stroke="#586373"/>
      <rect x="24" y="200" width="172" height="70" rx="12" fill="#1b232d" stroke="#586373"/>
      <path d="M48 148h124M48 228h86M48 245h112" stroke="#969fac" stroke-width="6" stroke-linecap="round"/>
    </g>
  </g>
</svg>
